<svg width="160" height="161" viewBox="0 0 160 161" fill="none" xmlns="http://www.w3.org/2000/svg">
<g clip-path="url(#clip0_1117_1660)">
<path d="M28.4122 146.605C30.8371 141.592 33.0054 135.92 34.8409 129.657C35.1889 128.467 34.3603 127.147 33.1098 126.899C24.528 125.187 15.6136 122.889 6.44245 119.94C4.41772 119.289 4.30245 116.406 6.28587 115.971C31.2808 110.492 51.128 92.7002 59.2856 68.1359C59.7663 66.6919 61.6431 66.4374 62.6979 67.6792L87.5254 96.9454C88.0103 97.5152 88.1908 98.2786 87.9908 98.9484C79.9614 125.818 58.1634 145.032 30.7545 149.673C29.0908 149.954 27.6837 148.108 28.4122 146.603V146.605Z" fill="url(#paint0_linear_1117_1660)"/>
<path d="M82.6442 91.1875C80.2606 96.842 73.4796 110.395 59.1368 122.596C49.3024 130.962 38.5872 136.038 31.8061 138.702C31.4517 139.633 31.0885 140.547 30.7188 141.443C37.4519 138.953 49.5394 133.618 60.5461 124.253C70.5088 115.778 76.8244 106.702 80.3693 100.583C82.1092 97.5792 83.3619 94.9977 84.2209 93.0491L82.6442 91.1897V91.1875Z" fill="url(#paint1_linear_1117_1660)"/>
<path d="M68.2302 84.5863C69.659 82.1179 70.7595 79.9344 71.5837 78.1511L70.0179 76.3047C67.2624 82.4898 60.4509 95.1558 46.9977 106.6C36.3085 115.695 24.5755 120.899 17.9902 123.348C19.1885 123.67 20.3825 123.983 21.5721 124.283C28.5445 121.447 38.8813 116.36 48.4069 108.257C58.3697 99.7816 64.6853 90.7062 68.2302 84.5863Z" fill="url(#paint2_linear_1117_1660)"/>
<path d="M131.305 146.605C128.88 141.592 126.712 135.92 124.877 129.657C124.529 128.467 125.357 127.147 126.608 126.899C135.19 125.187 144.104 122.889 153.275 119.94C155.3 119.289 155.415 116.406 153.432 115.971C128.437 110.492 108.59 92.7002 100.432 68.1359C99.9513 66.6919 98.0745 66.4374 97.0197 67.6792L72.1922 96.9454C71.7072 97.5152 71.5267 98.2786 71.7268 98.9484C79.7562 125.818 101.554 145.032 128.963 149.673C130.627 149.954 132.034 148.108 131.305 146.603V146.605Z" fill="url(#paint3_linear_1117_1660)"/>
<path d="M77.0748 91.1875C79.4583 96.842 86.2394 110.395 100.582 122.596C110.417 130.962 121.132 136.038 127.913 138.702C128.267 139.633 128.63 140.547 129 141.443C122.267 138.953 110.18 133.618 99.1729 124.253C89.2101 115.778 82.8945 106.702 79.3496 100.583C77.6098 97.5792 76.3571 94.9977 75.498 93.0491L77.0748 91.1897V91.1875Z" fill="url(#paint4_linear_1117_1660)"/>
<path d="M91.4883 84.5863C90.0595 82.1179 88.959 79.9344 88.1348 78.1511L89.7006 76.3047C92.4561 82.4898 99.2675 95.1558 112.721 106.6C123.41 115.695 135.143 120.899 141.728 123.348C140.53 123.67 139.336 123.983 138.146 124.283C131.174 121.447 120.837 116.36 111.312 108.257C101.349 99.7816 95.0332 90.7062 91.4883 84.5863Z" fill="url(#paint5_linear_1117_1660)"/>
<path d="M136.488 84.9693L130.811 94.7515C128.895 98.0551 127.425 101.6 126.446 105.291L123.543 116.225C122.599 119.781 119.822 122.556 116.268 123.5L105.334 126.404C101.643 127.384 98.098 128.852 94.7945 130.768L85.0123 136.445C81.8305 138.291 77.905 138.291 74.7233 136.445L64.9411 130.768C61.6376 128.852 58.0927 127.382 54.402 126.404L43.4672 123.5C39.9114 122.556 37.1363 119.779 36.1925 116.225L33.2891 105.291C32.3083 101.6 30.8403 98.0551 28.9243 94.7515L23.2481 84.9693C21.4017 81.7876 21.4017 77.8621 23.2481 74.6803L28.9243 64.8981C30.8403 61.5946 32.3105 58.0497 33.2891 54.3591L36.1925 43.4242C37.1363 39.8684 39.9135 37.0934 43.4672 36.1495L54.402 33.2461C58.0927 32.2653 61.6376 30.7973 64.9411 28.8813L74.7233 23.2051C77.905 21.3587 81.8305 21.3587 85.0123 23.2051L94.7945 28.8813C98.098 30.7973 101.643 32.2675 105.334 33.2461L116.268 36.1495C119.824 37.0934 122.599 39.8706 123.543 43.4242L126.446 54.3591C127.427 58.0497 128.895 61.5946 130.811 64.8981L136.488 74.6803C138.334 77.8621 138.334 81.7876 136.488 84.9693Z" fill="url(#paint6_linear_1117_1660)"/>
<path d="M136.488 75.5943L130.811 85.3765C128.895 88.6801 127.425 92.225 126.446 95.9156L123.543 106.85C122.599 110.406 119.822 113.181 116.268 114.125L105.334 117.029C101.643 118.009 98.098 119.477 94.7945 121.393L85.0123 127.07C81.8305 128.916 77.905 128.916 74.7233 127.07L64.9411 121.393C61.6376 119.477 58.0927 118.007 54.402 117.029L43.4672 114.125C39.9114 113.181 37.1363 110.404 36.1925 106.85L33.2891 95.9156C32.3083 92.225 30.8403 88.6801 28.9243 85.3765L23.2481 75.5943C21.4017 72.4126 21.4017 68.4871 23.2481 65.3053L28.9243 55.5231C30.8403 52.2196 32.3105 48.6747 33.2891 44.9841L36.1925 34.0492C37.1363 30.4934 39.9135 27.7184 43.4672 26.7745L54.402 23.8711C58.0927 22.8903 61.6376 21.4223 64.9411 19.5063L74.7233 13.8301C77.905 11.9837 81.8305 11.9837 85.0123 13.8301L94.7945 19.5063C98.098 21.4223 101.643 22.8925 105.334 23.8711L116.268 26.7745C119.824 27.7184 122.599 30.4956 123.543 34.0492L126.446 44.9841C127.427 48.6747 128.895 52.2196 130.811 55.5231L136.488 65.3053C138.334 68.4871 138.334 72.4126 136.488 75.5943Z" fill="url(#paint7_linear_1117_1660)" stroke="url(#paint8_linear_1117_1660)" stroke-width="1.0874" stroke-miterlimit="10"/>
<path d="M79.86 119.427C106.395 119.427 127.906 97.9164 127.906 71.3815C127.906 44.8467 106.395 23.3359 79.86 23.3359C53.3252 23.3359 31.8145 44.8467 31.8145 71.3815C31.8145 97.9164 53.3252 119.427 79.86 119.427Z" fill="url(#paint9_linear_1117_1660)" stroke="url(#paint10_linear_1117_1660)" stroke-width="0.869918" stroke-miterlimit="10"/>
<path d="M79.8608 114.085C103.447 114.085 122.567 94.9645 122.567 71.3783C122.567 47.7922 103.447 28.6719 79.8608 28.6719C56.2746 28.6719 37.1543 47.7922 37.1543 71.3783C37.1543 94.9645 56.2746 114.085 79.8608 114.085Z" fill="url(#paint11_linear_1117_1660)"/>
<path d="M81.0013 35.9669L82.3562 38.2722C82.4737 38.4745 82.689 38.6137 82.9347 38.6506L85.849 39.0878C86.4884 39.1835 86.7907 39.9055 86.3622 40.3339L84.3505 42.3565C84.1765 42.5326 84.1004 42.7806 84.1504 43.0263L84.7463 46.0275C84.8812 46.7061 84.1874 47.2258 83.5546 46.9127L80.699 45.5034C80.4598 45.386 80.1793 45.386 79.94 45.5034L77.0845 46.9127C76.4517 47.2258 75.7579 46.7061 75.8927 46.0275L76.4886 43.0263C76.5365 42.7806 76.4625 42.5305 76.2886 42.3565L74.2769 40.3339C73.8506 39.9055 74.1507 39.1835 74.7901 39.0878L77.7044 38.6506C77.9501 38.6137 78.1654 38.4723 78.2828 38.2722L79.6377 35.9669C79.9248 35.4798 80.7077 35.4798 80.9948 35.9669H81.0013Z" fill="url(#paint12_linear_1117_1660)"/>
<path d="M96.7648 42.6185L97.028 43.8625C97.0519 43.9713 97.1258 44.0669 97.2324 44.1213L98.4807 44.7585C98.7548 44.8977 98.7809 45.2696 98.5242 45.3979L97.3129 46.0047C97.2085 46.0569 97.1367 46.1591 97.1215 46.2765L96.9366 47.7206C96.8953 48.0468 96.5038 48.1773 96.2646 47.9403L95.1903 46.8724C95.1011 46.7833 94.9728 46.7398 94.8488 46.7572L93.3482 46.9616C93.0155 47.0073 92.7806 46.668 92.9437 46.3831L93.6657 45.1195C93.7245 45.0152 93.7288 44.8934 93.6766 44.7868L93.0764 43.5711C92.9481 43.3123 93.1938 43.0339 93.4961 43.0861L94.8771 43.3297C94.9945 43.3493 95.112 43.3188 95.1946 43.247L96.1537 42.4119C96.356 42.2358 96.7104 42.3532 96.7648 42.6164V42.6185Z" fill="url(#paint13_linear_1117_1660)"/>
<path d="M62.957 42.6185L62.6939 43.8625C62.67 43.9713 62.596 44.0669 62.4895 44.1213L61.2411 44.7585C60.9671 44.8977 60.941 45.2696 61.1976 45.3979L62.409 46.0047C62.5134 46.0569 62.5852 46.1591 62.6004 46.2765L62.7852 47.7206C62.8266 48.0468 63.218 48.1773 63.4572 47.9403L64.5316 46.8724C64.6208 46.7833 64.7491 46.7398 64.873 46.7572L66.3736 46.9616C66.7064 47.0073 66.9413 46.668 66.7782 46.3831L66.0561 45.1195C65.9974 45.0152 65.9931 44.8934 66.0453 44.7868L66.6455 43.5711C66.7738 43.3123 66.5281 43.0339 66.2258 43.0861L64.8448 43.3297C64.7273 43.3493 64.6099 43.3188 64.5272 43.247L63.5682 42.4119C63.3659 42.2358 63.0114 42.3532 62.957 42.6164V42.6185Z" fill="url(#paint14_linear_1117_1660)"/>
<g filter="url(#filter0_d_1117_1660)">
<path d="M51.3177 88.0696V68.0984H44.1387V63.8184C46.3156 63.788 48.1185 63.2356 49.5452 62.1613C50.9719 61.0869 51.8374 59.769 52.1463 58.2031H57.6224V88.0674H51.3177V88.0696Z" fill="url(#paint15_linear_1117_1660)" stroke="url(#paint16_linear_1117_1660)" stroke-width="1.0874" stroke-miterlimit="10"/>
<path d="M62.1758 73.1611C62.1758 71.2277 62.3606 69.3639 62.7282 67.5697C63.0957 65.7755 63.7873 64.0944 64.7986 62.5307C65.7794 61.0584 67.0843 59.8535 68.711 58.9184C70.3378 57.9832 72.3147 57.5156 74.6482 57.5156C76.9818 57.5156 78.95 57.9832 80.5615 58.9184C82.173 59.8535 83.467 61.0584 84.45 62.5307C85.4635 64.0944 86.1594 65.7755 86.5444 67.5697C86.9271 69.3639 87.1185 71.2277 87.1185 73.1611C87.1185 75.0945 86.9271 76.9583 86.5444 78.7525C86.1594 80.5467 85.4635 82.2278 84.45 83.7915C83.467 85.2638 82.173 86.4687 80.5615 87.4038C78.95 88.339 76.9796 88.8066 74.6482 88.8066C72.3169 88.8066 70.3378 88.339 68.711 87.4038C67.0843 86.4687 65.7816 85.2638 64.7986 83.7915C63.7851 82.2278 63.0957 80.5467 62.7282 78.7525C62.3606 76.9583 62.1758 75.0945 62.1758 73.1611ZM68.5262 73.1611C68.5262 74.7248 68.648 76.1602 68.8937 77.4629C69.1395 78.7677 69.5527 79.8638 70.1355 80.7533C70.5966 81.4906 71.1947 82.0799 71.9297 82.5258C72.667 82.9716 73.5695 83.1934 74.6439 83.1934C75.7182 83.1934 76.6534 82.9716 77.358 82.5258C78.0627 82.0821 78.6455 81.4906 79.1066 80.7533C79.7199 79.8638 80.1483 78.7677 80.394 77.4629C80.6398 76.1602 80.7616 74.7248 80.7616 73.1611C80.7616 71.5974 80.6376 70.1621 80.394 68.8594C80.1483 67.5567 79.7199 66.4584 79.1066 65.5689C78.6455 64.8316 78.0627 64.2423 77.358 63.7964C76.6512 63.3528 75.7465 63.1288 74.6439 63.1288C73.5413 63.1288 72.6648 63.3506 71.9297 63.7964C71.1925 64.2423 70.5944 64.8316 70.1355 65.5689C69.5527 66.4584 69.1373 67.5545 68.8937 68.8594C68.648 70.1642 68.5262 71.5974 68.5262 73.1611Z" fill="url(#paint17_linear_1117_1660)" stroke="url(#paint18_linear_1117_1660)" stroke-width="1.0874" stroke-miterlimit="10"/>
<path d="M89.6504 73.1611C89.6504 71.2277 89.8353 69.3639 90.2028 67.5697C90.5703 65.7755 91.2619 64.0944 92.2732 62.5307C93.254 61.0584 94.5589 59.8535 96.1856 58.9184C97.8124 57.9832 99.7893 57.5156 102.123 57.5156C104.456 57.5156 106.425 57.9832 108.036 58.9184C109.648 59.8535 110.942 61.0584 111.925 62.5307C112.938 64.0944 113.634 65.7755 114.019 67.5697C114.402 69.3639 114.593 71.2277 114.593 73.1611C114.593 75.0945 114.402 76.9583 114.019 78.7525C113.634 80.5467 112.938 82.2278 111.925 83.7915C110.942 85.2638 109.648 86.4687 108.036 87.4038C106.425 88.339 104.454 88.8066 102.123 88.8066C99.7915 88.8066 97.8124 88.339 96.1856 87.4038C94.5589 86.4687 93.2562 85.2638 92.2732 83.7915C91.2597 82.2278 90.5703 80.5467 90.2028 78.7525C89.8353 76.9583 89.6504 75.0945 89.6504 73.1611ZM96.0008 73.1611C96.0008 74.7248 96.1226 76.1602 96.3683 77.4629C96.6141 78.7677 97.0273 79.8638 97.6101 80.7533C98.0712 81.4906 98.6693 82.0799 99.4044 82.5258C100.142 82.9716 101.044 83.1934 102.118 83.1934C103.193 83.1934 104.128 82.9716 104.833 82.5258C105.537 82.0821 106.12 81.4906 106.581 80.7533C107.194 79.8638 107.623 78.7677 107.869 77.4629C108.114 76.1602 108.236 74.7248 108.236 73.1611C108.236 71.5974 108.112 70.1621 107.869 68.8594C107.623 67.5567 107.194 66.4584 106.581 65.5689C106.12 64.8316 105.537 64.2423 104.833 63.7964C104.126 63.3528 103.221 63.1288 102.118 63.1288C101.016 63.1288 100.139 63.3506 99.4044 63.7964C98.6671 64.2423 98.069 64.8316 97.6101 65.5689C97.0273 66.4584 96.6119 67.5545 96.3683 68.8594C96.1226 70.1642 96.0008 71.5974 96.0008 73.1611Z" fill="url(#paint19_linear_1117_1660)" stroke="url(#paint20_linear_1117_1660)" stroke-width="1.0874" stroke-miterlimit="10"/>
</g>
</g>
<defs>
<filter id="filter0_d_1117_1660" x="43.5957" y="56.9688" width="71.541" height="34.5576" filterUnits="userSpaceOnUse" color-interpolation-filters="sRGB">
<feFlood flood-opacity="0" result="BackgroundImageFix"/>
<feColorMatrix in="SourceAlpha" type="matrix" values="0 0 0 0 0 0 0 0 0 0 0 0 0 0 0 0 0 0 127 0" result="hardAlpha"/>
<feOffset dy="2.1748"/>
<feColorMatrix type="matrix" values="0 0 0 0 0 0 0 0 0 0 0 0 0 0 0 0 0 0 0.2 0"/>
<feBlend mode="normal" in2="BackgroundImageFix" result="effect1_dropShadow_1117_1660"/>
<feBlend mode="normal" in="SourceGraphic" in2="effect1_dropShadow_1117_1660" result="shape"/>
</filter>
<linearGradient id="paint0_linear_1117_1660" x1="35.2498" y1="92.6937" x2="83.515" y2="159.012" gradientUnits="userSpaceOnUse">
<stop stop-color="#FBCBBF"/>
<stop offset="0.09" stop-color="#F4BDAD"/>
<stop offset="0.28" stop-color="#E39A81"/>
<stop offset="0.3" stop-color="#E2967C"/>
<stop offset="0.47" stop-color="#DF7655"/>
<stop offset="0.49" stop-color="#DF7351"/>
<stop offset="0.76" stop-color="#E49175"/>
<stop offset="0.91" stop-color="#F0B29E"/>
<stop offset="1" stop-color="#F9C8BA"/>
</linearGradient>
<linearGradient id="paint1_linear_1117_1660" x1="85.7781" y1="93.6972" x2="47.4603" y2="130.356" gradientUnits="userSpaceOnUse">
<stop stop-color="#A3543B"/>
<stop offset="0.22" stop-color="#BD6F56"/>
<stop offset="0.56" stop-color="#E2967C"/>
<stop offset="0.72" stop-color="#ECB9A8"/>
<stop offset="0.91" stop-color="#F6DCD4"/>
<stop offset="1" stop-color="#FBEAE6"/>
</linearGradient>
<linearGradient id="paint2_linear_1117_1660" x1="71.7468" y1="79.0319" x2="33.4313" y2="115.692" gradientUnits="userSpaceOnUse">
<stop stop-color="#A3543B"/>
<stop offset="0.22" stop-color="#BD6F56"/>
<stop offset="0.56" stop-color="#E2967C"/>
<stop offset="0.72" stop-color="#ECB9A8"/>
<stop offset="0.91" stop-color="#F6DCD4"/>
<stop offset="1" stop-color="#FBEAE6"/>
</linearGradient>
<linearGradient id="paint3_linear_1117_1660" x1="124.468" y1="92.6937" x2="76.2025" y2="159.012" gradientUnits="userSpaceOnUse">
<stop stop-color="#FBCBBF"/>
<stop offset="0.09" stop-color="#F4BDAD"/>
<stop offset="0.28" stop-color="#E39A81"/>
<stop offset="0.3" stop-color="#E2967C"/>
<stop offset="0.47" stop-color="#DF7655"/>
<stop offset="0.49" stop-color="#DF7351"/>
<stop offset="0.76" stop-color="#E49175"/>
<stop offset="0.91" stop-color="#F0B29E"/>
<stop offset="1" stop-color="#F9C8BA"/>
</linearGradient>
<linearGradient id="paint4_linear_1117_1660" x1="73.9409" y1="93.6972" x2="112.256" y2="130.356" gradientUnits="userSpaceOnUse">
<stop stop-color="#A3543B"/>
<stop offset="0.22" stop-color="#BD6F56"/>
<stop offset="0.56" stop-color="#E2967C"/>
<stop offset="0.72" stop-color="#ECB9A8"/>
<stop offset="0.91" stop-color="#F6DCD4"/>
<stop offset="1" stop-color="#FBEAE6"/>
</linearGradient>
<linearGradient id="paint5_linear_1117_1660" x1="87.9717" y1="79.0319" x2="126.289" y2="115.692" gradientUnits="userSpaceOnUse">
<stop stop-color="#A3543B"/>
<stop offset="0.22" stop-color="#BD6F56"/>
<stop offset="0.56" stop-color="#E2967C"/>
<stop offset="0.72" stop-color="#ECB9A8"/>
<stop offset="0.91" stop-color="#F6DCD4"/>
<stop offset="1" stop-color="#FBEAE6"/>
</linearGradient>
<linearGradient id="paint6_linear_1117_1660" x1="79.8645" y1="29.1206" x2="79.8645" y2="134.561" gradientUnits="userSpaceOnUse">
<stop stop-color="#DB755B"/>
<stop offset="0.51" stop-color="#91320B"/>
<stop offset="1" stop-color="#7F220A"/>
</linearGradient>
<linearGradient id="paint7_linear_1117_1660" x1="79.8645" y1="128.459" x2="79.8645" y2="12.4404" gradientUnits="userSpaceOnUse">
<stop stop-color="#FBCBBF"/>
<stop offset="0.09" stop-color="#F4BDAD"/>
<stop offset="0.28" stop-color="#E39A81"/>
<stop offset="0.3" stop-color="#E2967C"/>
<stop offset="0.47" stop-color="#DF7655"/>
<stop offset="0.49" stop-color="#DF7351"/>
<stop offset="0.76" stop-color="#E49175"/>
<stop offset="0.91" stop-color="#F0B29E"/>
<stop offset="1" stop-color="#F9C8BA"/>
</linearGradient>
<linearGradient id="paint8_linear_1117_1660" x1="79.8645" y1="129.003" x2="79.8645" y2="11.8967" gradientUnits="userSpaceOnUse">
<stop stop-color="#E89D85"/>
<stop offset="0.41" stop-color="#F99F82"/>
<stop offset="0.53" stop-color="#FFA082"/>
<stop offset="1" stop-color="#E18061"/>
</linearGradient>
<linearGradient id="paint9_linear_1117_1660" x1="79.86" y1="22.5052" x2="79.86" y2="118.596" gradientUnits="userSpaceOnUse">
<stop stop-color="#63200E"/>
<stop offset="0.49" stop-color="#AB4115"/>
<stop offset="1" stop-color="#D48774"/>
</linearGradient>
<linearGradient id="paint10_linear_1117_1660" x1="79.86" y1="119.86" x2="79.86" y2="22.901" gradientUnits="userSpaceOnUse">
<stop stop-color="#812D12"/>
<stop offset="0.47" stop-color="#FFA082"/>
<stop offset="0.59" stop-color="#FEAF96"/>
<stop offset="0.86" stop-color="#FBD0C2"/>
<stop offset="0.99" stop-color="#FBDDD4"/>
</linearGradient>
<linearGradient id="paint11_linear_1117_1660" x1="79.8608" y1="27.9324" x2="79.8608" y2="113.348" gradientUnits="userSpaceOnUse">
<stop stop-color="#D48774"/>
<stop offset="0.51" stop-color="#AB4115"/>
<stop offset="1" stop-color="#63200E"/>
</linearGradient>
<linearGradient id="paint12_linear_1117_1660" x1="80.3228" y1="32.4394" x2="80.3228" y2="58.1129" gradientUnits="userSpaceOnUse">
<stop stop-color="#63200E"/>
<stop offset="0.49" stop-color="#AB4115"/>
<stop offset="1" stop-color="#D48774"/>
</linearGradient>
<linearGradient id="paint13_linear_1117_1660" x1="95.7949" y1="32.4427" x2="95.7949" y2="58.1161" gradientUnits="userSpaceOnUse">
<stop stop-color="#63200E"/>
<stop offset="0.49" stop-color="#AB4115"/>
<stop offset="1" stop-color="#D48774"/>
</linearGradient>
<linearGradient id="paint14_linear_1117_1660" x1="63.927" y1="32.4427" x2="63.927" y2="58.1161" gradientUnits="userSpaceOnUse">
<stop stop-color="#63200E"/>
<stop offset="0.49" stop-color="#AB4115"/>
<stop offset="1" stop-color="#D48774"/>
</linearGradient>
<linearGradient id="paint15_linear_1117_1660" x1="50.2303" y1="60.5128" x2="62.3896" y2="109.883" gradientUnits="userSpaceOnUse">
<stop stop-color="#FFE0D6"/>
<stop offset="0.14" stop-color="#FFD2C4"/>
<stop offset="0.41" stop-color="#FFB198"/>
<stop offset="0.53" stop-color="#FFA082"/>
<stop offset="1" stop-color="#A35941"/>
</linearGradient>
<linearGradient id="paint16_linear_1117_1660" x1="43.595" y1="73.1374" x2="58.1661" y2="73.1374" gradientUnits="userSpaceOnUse">
<stop stop-color="#FFE0D6"/>
<stop offset="0.14" stop-color="#FFD2C4"/>
<stop offset="0.41" stop-color="#FFB198"/>
<stop offset="0.53" stop-color="#FFA082"/>
<stop offset="1" stop-color="#E18061"/>
</linearGradient>
<linearGradient id="paint17_linear_1117_1660" x1="70.303" y1="55.5714" x2="82.4601" y2="104.941" gradientUnits="userSpaceOnUse">
<stop stop-color="#FFE0D6"/>
<stop offset="0.14" stop-color="#FFD2C4"/>
<stop offset="0.41" stop-color="#FFB198"/>
<stop offset="0.53" stop-color="#FFA082"/>
<stop offset="1" stop-color="#A35941"/>
</linearGradient>
<linearGradient id="paint18_linear_1117_1660" x1="61.6321" y1="73.1611" x2="87.6622" y2="73.1611" gradientUnits="userSpaceOnUse">
<stop stop-color="#FFE0D6"/>
<stop offset="0.14" stop-color="#FFD2C4"/>
<stop offset="0.41" stop-color="#FFB198"/>
<stop offset="0.53" stop-color="#FFA082"/>
<stop offset="1" stop-color="#E18061"/>
</linearGradient>
<linearGradient id="paint19_linear_1117_1660" x1="96.203" y1="49.1927" x2="108.362" y2="98.5627" gradientUnits="userSpaceOnUse">
<stop stop-color="#FFE0D6"/>
<stop offset="0.14" stop-color="#FFD2C4"/>
<stop offset="0.41" stop-color="#FFB198"/>
<stop offset="0.53" stop-color="#FFA082"/>
<stop offset="1" stop-color="#A35941"/>
</linearGradient>
<linearGradient id="paint20_linear_1117_1660" x1="89.1067" y1="73.1611" x2="115.135" y2="73.1611" gradientUnits="userSpaceOnUse">
<stop stop-color="#FFE0D6"/>
<stop offset="0.14" stop-color="#FFD2C4"/>
<stop offset="0.41" stop-color="#FFB198"/>
<stop offset="0.53" stop-color="#FFA082"/>
<stop offset="1" stop-color="#E18061"/>
</linearGradient>
<clipPath id="clip0_1117_1660">
<rect width="150" height="137.806" fill="white" transform="translate(4.85938 11.8984)"/>
</clipPath>
</defs>
</svg>