<?xml version="1.0" standalone="no"?>
<!DOCTYPE svg PUBLIC "-//W3C//DTD SVG 20010904//EN"
 "http://www.w3.org/TR/2001/REC-SVG-20010904/DTD/svg10.dtd">
<svg version="1.0" xmlns="http://www.w3.org/2000/svg"
 width="426.000000pt" height="118.000000pt" viewBox="0 0 426.000000 118.000000"
 preserveAspectRatio="xMidYMid meet">

<g transform="translate(0.000000,118.000000) scale(0.100000,-0.100000)"
fill="#000000" stroke="none">
<path d="M797 598 c-179 -183 -324 -334 -322 -336 1 -1 148 69 325 157 178 88
327 158 332 155 4 -3 8 -56 8 -117 l0 -112 57 60 c32 33 91 96 132 140 41 44
109 115 149 158 41 42 70 77 65 77 -5 0 -76 -15 -159 -34 -113 -26 -152 -32
-160 -23 -6 7 -30 56 -54 110 -23 53 -44 97 -45 97 -2 0 -149 -150 -328 -332z"/>
<path d="M2183 834 c-7 -3 -13 -16 -13 -30 0 -17 7 -25 26 -30 31 -8 47 6 42
37 -3 24 -28 34 -55 23z"/>
<path d="M1755 818 c-69 -25 -115 -98 -115 -183 0 -149 133 -235 263 -168 41
21 67 70 67 126 l0 47 -76 0 c-72 0 -75 -1 -72 -22 2 -19 10 -24 46 -26 39 -3
42 -5 36 -25 -16 -55 -71 -77 -129 -53 -48 20 -68 65 -63 137 5 68 32 105 83
115 39 7 91 -17 100 -46 4 -14 15 -20 35 -20 38 0 44 13 26 49 -31 59 -133 94
-201 69z"/>
<path d="M2040 635 l0 -185 30 0 30 0 0 185 0 185 -30 0 -30 0 0 -185z"/>
<path d="M2170 590 l0 -140 35 0 35 0 0 140 0 140 -35 0 -35 0 0 -140z"/>
<path d="M2310 590 l0 -140 30 0 30 0 0 84 c0 47 4 96 9 109 12 30 43 42 71
27 18 -10 20 -20 20 -115 l0 -105 35 0 35 0 0 99 c0 105 10 131 49 131 39 0
51 -31 51 -133 l0 -97 36 0 37 0 -5 115 c-4 104 -7 117 -28 140 -30 32 -86 34
-123 5 l-26 -21 -21 21 c-28 28 -86 27 -117 -2 l-23 -21 0 21 c0 18 -6 22 -30
22 l-30 0 0 -140z"/>
<path d="M2772 538 l3 -193 33 -3 32 -3 0 70 c0 39 3 71 6 71 3 0 12 -7 20
-15 37 -36 116 -21 148 27 43 66 24 193 -34 223 -42 22 -90 19 -117 -7 l-23
-21 0 21 c0 18 -6 22 -35 22 l-35 0 2 -192z m175 120 c18 -17 23 -32 23 -70 0
-55 -24 -88 -65 -88 -41 0 -65 33 -65 90 0 81 55 117 107 68z"/>
<path d="M3119 701 c-32 -32 -35 -47 -18 -85 12 -26 35 -38 107 -56 49 -13 64
-36 37 -56 -27 -20 -61 -17 -84 7 -24 26 -66 23 -66 -5 0 -33 50 -61 109 -60
60 0 102 22 116 60 21 53 -16 89 -118 114 -36 9 -43 15 -40 33 2 17 11 23 39
25 23 2 40 -2 49 -12 14 -18 56 -21 65 -6 4 6 -7 24 -24 40 -26 26 -37 30 -86
30 -49 0 -60 -4 -86 -29z"/>
<path d="M3425 708 c-71 -56 -72 -195 -1 -241 57 -38 149 -27 186 21 l21 27
-21 9 c-15 7 -27 6 -38 -2 -58 -41 -113 -33 -131 19 l-10 29 100 0 99 0 0 31
c0 45 -28 98 -61 114 -42 22 -111 19 -144 -7z m125 -48 c33 -33 24 -40 -45
-40 -69 0 -79 8 -48 42 21 24 68 23 93 -2z"/>
</g>
</svg>