<?xml version="1.0" standalone="no"?>
<!DOCTYPE svg PUBLIC "-//W3C//DTD SVG 20010904//EN"
 "http://www.w3.org/TR/2001/REC-SVG-20010904/DTD/svg10.dtd">
<svg version="1.0" xmlns="http://www.w3.org/2000/svg"
 width="270.000000pt" height="54.000000pt" viewBox="0 0 270.000000 54.000000"
 preserveAspectRatio="xMidYMid meet">

<g transform="translate(0.000000,54.000000) scale(0.100000,-0.100000)"
fill="#000000" stroke="none">
<path d="M16 518 c-13 -19 -16 -61 -16 -254 0 -211 2 -232 18 -247 16 -15 49
-17 255 -17 232 0 236 0 251 22 13 19 16 61 16 254 0 211 -2 232 -18 247 -16
15 -49 17 -255 17 -232 0 -236 0 -251 -22z m213 -248 c0 -41 -5 -51 -64 -115
l-64 -70 0 185 0 185 64 -70 c59 -64 64 -74 64 -115z m211 -2 l-1 -183 -64 70
c-60 64 -65 74 -65 115 0 41 5 51 61 113 33 37 62 67 65 67 2 0 4 -82 4 -182z"/>
<path d="M1225 436 c-12 -9 -15 -19 -10 -35 9 -30 59 -26 63 6 4 29 -28 47
-53 29z"/>
<path d="M2470 270 l0 -180 25 0 c21 0 25 5 25 28 0 26 25 62 43 62 3 0 18
-20 33 -45 23 -39 30 -45 60 -45 l34 0 -46 71 -46 72 48 48 48 49 -36 0 c-30
0 -43 -8 -82 -50 -26 -28 -49 -50 -51 -50 -3 0 -5 50 -5 110 l0 110 -25 0 -25
0 0 -180z"/>
<path d="M800 265 l0 -175 25 0 25 0 0 107 c0 59 4 103 8 97 5 -5 25 -53 46
-106 35 -92 40 -98 66 -98 26 0 31 7 71 108 l44 107 3 -107 3 -108 29 0 30 0
0 175 0 175 -33 0 -33 0 -54 -135 c-29 -74 -56 -135 -60 -135 -4 0 -31 61 -60
135 -51 129 -55 135 -82 135 l-28 0 0 -175z"/>
<path d="M1500 431 c0 -6 11 -45 24 -88 13 -43 36 -117 50 -165 26 -85 28 -88
56 -88 28 0 30 3 59 98 16 53 33 110 37 125 3 16 10 25 14 20 4 -4 22 -61 41
-126 33 -117 33 -117 64 -117 l30 0 49 163 c26 89 51 168 53 175 4 10 -4 13
-27 10 -33 -3 -33 -4 -68 -121 -19 -64 -37 -116 -39 -113 -2 2 -18 55 -36 117
l-33 114 -35 3 -35 3 -35 -120 c-31 -111 -49 -148 -49 -103 0 9 -9 44 -19 77
-10 33 -24 79 -30 103 -11 37 -15 42 -41 42 -17 0 -30 -4 -30 -9z"/>
<path d="M1220 210 l0 -120 25 0 25 0 0 120 0 120 -25 0 -25 0 0 -120z"/>
<path d="M1340 210 c0 -120 0 -120 24 -120 22 0 24 4 28 75 6 84 16 102 64
111 27 5 34 11 34 30 0 20 -5 24 -28 24 -15 0 -38 -7 -50 -16 -20 -14 -22 -14
-22 0 0 10 -9 16 -25 16 l-25 0 0 -120z"/>
<path d="M2030 313 c-36 -25 -48 -43 -55 -84 -8 -46 14 -101 50 -125 36 -23
112 -23 147 0 66 43 72 134 13 193 -28 28 -40 33 -82 33 -29 0 -58 -7 -73 -17z
m120 -53 c40 -40 16 -112 -42 -126 -21 -4 -33 0 -52 20 -49 48 -22 126 44 126
17 0 39 -9 50 -20z"/>
<path d="M2280 210 l0 -120 25 0 c24 0 25 3 25 63 0 77 15 108 58 119 25 7 32
14 32 33 0 19 -5 25 -23 25 -12 0 -32 -7 -44 -15 -19 -13 -22 -13 -27 0 -3 8
-15 15 -26 15 -19 0 -20 -6 -20 -120z"/>
</g>
</svg>