<svg version="1.2" xmlns="http://www.w3.org/2000/svg" viewBox="0 0 1028 1545" width="1028" height="1545">
	<title>fjqncrgotcyfwegigdks-svg</title>
	<style>
		.s0 { fill: #ff8200 } 
		.s1 { fill: #63656a } 
	</style>
	<g id="#ff8200ff">
		<path id="Layer" fill-rule="evenodd" class="s0" d="m516.6 0h0.5c4 2.6 8.5 4.5 12.7 6.6 49.2 24 98.4 48 147.6 72 61.9 30.3 123.9 60.4 185.7 90.8-5 23.5-10.1 47-15.1 70.6 59.7 30 119.4 59.9 179.2 89.8-8.9 43.4-18.3 86.7-27.3 130.1q-49.8 236.1-99.5 472.3c-3.9 17.9-7.5 36-11.5 53.9-2.5 3.9-6.9 6.2-10.2 9.4-115.9 99.3-231.8 198.6-347.7 297.8-4.9 4-9.3 8.5-14.6 12-122-104.5-244-209-366.1-313.5-2-2-5-3.4-6-6.2-42.8-203.1-85.6-406.2-128.4-609.2-3.1-15.6-6.8-30.9-9.6-46.5 26.6-13.7 53.6-26.8 80.3-40.4 32.9-16.5 65.9-32.9 98.7-49.5-4.8-23.6-10.2-47.1-15-70.7q149.6-73 299.1-146c15.7-7.8 31.7-15.2 47.2-23.3zm-1.8 103.9c-79.7 38.9-159.4 77.7-239.1 116.7 4.9 23.3 10 46.5 15 69.8-38.9 19.6-77.9 39.2-116.9 58.6-20.8 10.8-41.9 20.9-62.7 31.6q58.2 275.9 116.3 551.9c0.5 1.7 0.5 3.8 1.8 5.2 95.7 82.1 191.6 164 287.3 246.1 5.8-4.3 11.1-9.4 16.7-14 90.2-77.2 180.3-154.4 270.5-231.6 1.6-1 1.7-3.1 2.1-4.8 38.7-184.3 77.8-368.5 116.4-552.8-59.7-30.3-119.7-60-179.4-90.2 4.9-23.3 10-46.5 15-69.8-78.3-38.3-156.7-76.4-235-114.8-2.5-0.9-5.3-3.7-8-1.9z"/>
		<path id="Layer" fill-rule="evenodd" class="s0" d="m480.2 280.1c36-1.4 72.1 3.8 106.2 15.5 32.4 11.2 63 27.7 90.4 48.5 26.7 20.9 48.9 47.9 62.6 79 6.9 15.3 11.5 31.5 14.1 48 2.6 17 2.3 34.2 2 51.3-0.5 27.2-5.8 54.5-16 79.8-8.3 21.4-19.7 41.5-32.6 60.4-21.4 31.7-50.1 57.7-80.4 80.8-34.6 26.1-71.8 48.4-109.9 69-0.3 26.1-0.2 52.2 0 78.3q0 37.2 0 74.4c0.7 24.5 0.2 49 0.3 73.5-0.1 11.9 0.3 23.9 0.1 35.9-36.2-30.6-72.1-61.7-108.2-92.3-1.1-0.9-2.1-2-2-3.4-2.5-36.5-5.1-73-7.7-109.5-15 6.5-29.9 13-44.9 19.3-5.5-25.3-10.4-50.6-15.7-75.9-3-15.6-6.7-31-9.4-46.6 20.1-9.7 40.4-19.1 60.7-28.5-9.3-132.7-18.8-265.5-28.1-398.3-0.7-10.8-1.9-21.7-2.1-32.6 38.4-15.2 79.2-25.1 120.6-26.6zm35.2 128.7c-0.2 6.9-0.1 13.7 0.1 20.6-0.1 42.5 0.2 85 0.2 127.5 0.2 18.6-0.3 37.2 0.3 55.8 0.1 19.8 0 39.7 0.1 59.6 31.6-19.7 60.6-44.1 83.7-73.4 11.7-14.9 20.8-32 26.1-50.2 4.8-16.8 7.2-34.5 5.3-52-2.3-16-9.5-31.3-19.9-43.7-11.7-13.9-27.8-23.1-44.2-30.1-16.6-6.9-34-11.6-51.7-14.1z"/>
	</g>
	<g id="#63656aff">
		<path id="Layer" fill-rule="evenodd" class="s1" d="m217.9 1445.8c1.2-4.2 2.4-8.5 3.9-12.6 10.8 37 21.8 74 32.5 111.1-4.4 0-8.8 0.3-13.1-0.2-2.4-7.5-4.3-15.3-7.2-22.6-8.3 0.2-16.6-0.1-25 0.1-2.4 7.7-4.6 15.3-7.1 22.9-4.3 0.1-8.6 0.1-12.9 0 2.1-7.7 4.5-15.2 6.6-22.9q-2.4-0.1-4.7-0.2c1.2-4.2 2.4-8.4 3.9-12.6 1.4-0.1 2.9-0.1 4.3-0.3 1.1-0.9 1-2.6 1.5-3.8 5.7-19.7 11.6-39.3 17.3-58.9zm3.7 35.2c-3.1 9.1-5.8 18.4-8.5 27.6 5.7 0.2 11.5 0.1 17.2 0.1-1.7-6.7-4-13.1-5.9-19.7-0.8-2.7-1.4-5.5-2.8-8z"/>
		<path id="Layer" fill-rule="evenodd" class="s1" d="m7.3 1439.7c7.4-0.3 15-0.2 22.1 2.5 8.5 2.9 15.7 9.6 19 18.1 3.1 8 3.5 16.7 2.6 25.2-1 8.7-4.5 17.4-10.9 23.5-5.2 5.4-12.3 8.5-19.4 10.7l-0.4 0.6c-0.3 8 0 16.1-0.1 24.1q-6.5 0.5-12.9 0c-0.1-7.6 0.1-15.1-0.1-22.6-2.2 0-4.4 0.2-6.6 0.3 0.6-4.3 1.9-8.5 2.7-12.8q1.9-0.5 3.9-0.8c0.2-22.9 0-45.9 0.1-68.8zm12.9 13.3c0 17.9-0.1 35.8 0 53.7 7.1-2.5 13.4-7.7 16.2-14.8 2.9-7.6 3.1-16.1 0.9-23.9-2.3-7.7-9.2-13.7-17.1-15z"/>
		<path id="Layer" class="s1" d="m101.9 1439.7c4.2-0.1 8.5-0.1 12.8 0.1 0.1 30.5-0.2 61.1 0.1 91.7 10.3 0.1 20.7-0.2 31.1 0.1 0 4.4 0.1 8.9-0.1 13.4h-43.8c-0.4-10.3-0.1-20.7-0.2-31 0.1-24.8 0-49.5 0.1-74.3z"/>
		<path id="Layer" class="s1" d="m290.1 1439.7c4.4-0.1 8.9-0.1 13.3 0 5.1 15.8 10.6 31.4 15.8 47.1 3.1-6.5 4.6-13.5 7.2-20.2 3-9 6-18 9.2-26.9 4.4-0.1 8.7-0.1 13.1-0.1-6.8 21.5-13.7 42.9-20.6 64.3-0.9 3.3-2.5 6.6-2.5 10.1 0 10.1 0.1 20.2 0 30.4-4.2 0.3-8.4 0.2-12.6 0.1-0.2-11.2 0.3-22.4-0.2-33.6-7.4-23.8-15.3-47.4-22.7-71.2z"/>
		<path id="Layer" class="s1" d="m407.5 1442.5c8.7-4.1 18.9-3.6 28.2-1.9-0.4 4.3-1.1 8.5-1.7 12.7-6.3-0.7-12.9-2-19.1 0-4.6 1.5-7.3 6.5-6.9 11.1 0.6 5.8 3.7 10.8 6.9 15.5 4.3 6.2 9.6 11.6 14 17.8 5.2 6.8 9.9 14.6 10.1 23.4 0.3 7.8-4.3 15.2-11 18.9-9.9 5.9-21.9 4.9-32.8 3.2 0.4-4.2 1.1-8.4 1.6-12.7 7.3 0.5 14.9 1.9 22-0.5 3.8-1.3 7.9-4.4 7.5-8.9-0.4-4.5-2.7-8.5-5.1-12.1-4.8-7.2-10.9-13.4-15.9-20.4-5.2-7.4-10.1-15.8-10-25.1-0.2-8.5 4.4-17.2 12.2-21z"/>
		<path id="Layer" class="s1" d="m490.6 1439.7c16.1-0.1 32.3-0.1 48.4 0 0 4.2 0.1 8.5-0.1 12.7-5.8 0.2-11.7 0-17.6 0.1-0.5 30.6 0 61.3-0.3 92-4.2 0.1-8.4 0.2-12.5-0.1-0.1-30.6 0-61.2-0.1-91.8-5.9-0.2-11.8-0.1-17.8-0.1-0.2-4.3-0.1-8.6 0-12.8z"/>
		<path id="Layer" class="s1" d="m588.3 1439.7c4.3-0.1 8.5-0.1 12.7 0q0 39.8 0 79.7c-0.2 4.2 2.1 8.2 5.6 10.5 4.7 3 11.5 1.7 14.9-2.7 2.2-2.6 2.7-6.2 2.7-9.6 0-26 0-52 0.1-77.9q6.2-0.2 12.5 0c0.2 24.8 0 49.5 0.1 74.3 0 5.1 0.2 10.5-1.9 15.3-3.5 8.5-12 15-21.4 15.2-10.7 0.8-20.9-6.9-24.1-17-1.5-4-1.1-8.4-1.1-12.6 0-25.1 0-50.1-0.1-75.2z"/>
		<path id="Layer" fill-rule="evenodd" class="s1" d="m689.6 1439.7c8.2-0.5 16.8 0.1 24 4.4 12.5 7.5 20.6 20.9 23.3 35 2.9 15.7 0.6 32.9-8.3 46.3-4.8 7-11 13.3-19 16.4-6.3 2.7-13.3 3-20 2.7q-0.2-52.4 0-104.8zm12.6 13.7c-0.1 25.8 0 51.6 0 77.4 5-1.8 9.7-4.8 13-9 12.6-15.4 13.6-39 3-55.6-3.9-5.7-9.2-10.9-16-12.8z"/>
		<path id="Layer" class="s1" d="m791.2 1439.7c4.2-0.1 8.4-0.1 12.6 0q0 52.3 0 104.7c-4.2 0.3-8.4 0.2-12.6 0.1q-0.2-52.4 0-104.8z"/>
		<path id="Layer" fill-rule="evenodd" class="s1" d="m886.7 1440.1c8.2-1.7 17.1 0.4 23.5 5.9 10.3 8.8 16.1 22 17.9 35.3 2.2 16.4-0.4 34-9.8 47.8-4 5.5-8.8 10.7-15.1 13.2-8.6 3.8-18.9 2.6-26.5-2.8-5.5-3.9-9.7-9.4-12.9-15.3-6.9-12.5-8.6-27.2-7.1-41.3 1.2-10.6 4.8-21.1 11.3-29.7 4.6-6.2 11-11.4 18.7-13.1zm0.8 13.1c-4.6 1.3-8.4 4.5-11.2 8.2-8.4 10.9-10.7 25.3-9 38.7 1.4 10 5.5 20.1 13.2 26.9 4.2 3.8 10.4 5.4 15.9 4.1 4.8-0.9 8.7-4.1 11.7-7.7 5.4-6.8 8.7-15.3 9.6-23.9 1.4-11.1-0.1-22.8-5.5-32.7-2.5-4.3-5.5-8.6-9.8-11.3-4.3-3-9.9-3.7-14.9-2.3z"/>
		<path id="Layer" class="s1" d="m993.2 1442.9c8.8-4.7 19.4-3.9 29-2.4-0.5 4.3-1.1 8.6-1.9 12.9-6.3-0.9-13-2.1-19.2 0-4.8 1.6-7.4 7.1-6.6 11.9 1 7.1 5.6 12.9 9.7 18.5 6.1 7.8 12.9 15.2 17.6 24 3.1 6.2 4.8 13.5 2.5 20.3-1.9 6.5-7.5 11.3-13.6 13.7-9.2 3.8-19.5 2.8-29.1 1.4q0.5-6.5 1.8-12.9c7.3 1.1 15.1 2 22.2-0.5 3.5-1.2 6.9-4 7.1-7.9-0.1-5.7-3.6-10.6-6.7-15.1-6.5-8.9-14.3-16.8-19.5-26.5-2.9-5.4-5.2-11.4-4.8-17.7 0.1-7.9 4.4-15.9 11.5-19.7z"/>
	</g>
</svg>